<?xml version="1.0" encoding="UTF-8"?>
<svg xmlns="http://www.w3.org/2000/svg" viewBox="0 0 417 308" width="417" height="308">
<path d="M0.13 0.13C139.04 0.13 277.96 0.13 416.88 0.13C416.88 102.71 416.88 205.29 416.88 307.88C277.96 307.88 139.04 307.88 0.13 307.88C0.13 205.29 0.13 102.71 0.13 0.13ZM202.9 55.75C199.16 52.61 191.46 51.96 186.75 51.82C156.25 50.91 148.13 77.88 145.31 102.75C143.97 114.63 146.37 127.35 148.79 138.87C155.71 171.79 175.1 209.52 202.33 230.44C220.19 244.17 244.7 254.89 264.14 237.39C267.86 234.05 276.13 223.36 275.25 218.45C273.14 220.05 271.9 222.78 269.97 224.68C265.32 229.26 259.9 232.37 253.49 233.73C233.93 237.89 214.32 222.66 201.77 209.47C177.83 184.3 164.76 151.39 160.69 117.34C158.8 101.52 160.64 81.17 171.13 68.36C176.22 62.15 182.92 57.58 190.94 56.25C194.69 55.62 199.51 57.13 202.9 55.75ZM185.47 65.81C179.61 67.42 175.42 73.99 172.27 78.75C173.1 79.04 173.92 79.33 174.75 79.61C176.75 78.1 178.75 76.59 180.74 75.08C188.6 73.36 189.75 72.24 198.5 72.96C217.72 79.16 228.66 88.43 240.88 104.36C244.06 108.5 246.26 113.46 249.43 117.51C250.2 118.79 250.98 120.06 251.75 121.34C256.17 121.31 260.59 121.28 265.01 121.25C264.39 119.85 263.77 118.45 263.15 117.05C261.67 112.24 258.08 107.6 255.36 103.38C247.18 90.66 236.55 78.66 223.61 70.65C217.68 66.98 209.3 62.1 202.09 62.88C197.54 61.66 189.22 62.75 185.47 65.81ZM130.75 91.21C128.01 92.47 127.39 98.29 126.77 101.09C124.35 111.81 124.39 122.27 124.97 133.25C126.74 167.08 146.92 206.24 170.65 230.08C177 236.47 184.53 242.2 192.61 246.18C195.09 247.41 197.84 249.43 200.59 248.75C198.31 246.37 195.06 244.87 192.47 242.77C185.99 237.54 179.74 231.78 174.4 225.36C153.43 200.15 138.86 169.63 132.22 137.62C130.15 127.68 128.77 116.69 129.26 106.53C129.49 101.53 131.13 96.14 130.75 91.21ZM254.96 145.46C254.82 145.65 254.68 145.85 254.54 146.04C254.36 146.11 254.18 146.18 254 146.25C254.33 146.85 254.67 147.45 255 148.05C255.62 148.44 256.25 148.83 256.87 149.22C256.9 149.67 256.92 150.11 256.95 150.56C256.5 150.69 256.05 150.81 255.6 150.94C255.4 150.81 255.2 150.67 255 150.54C254.87 150.86 254.73 151.18 254.6 151.5C255.06 151.66 255.53 151.82 256 151.99C257.28 152.08 257.78 152.07 258.48 150.96C258.65 150.79 258.83 150.62 259.01 150.45C259.25 150.43 259.5 150.41 259.75 150.38C260.17 150.81 260.58 151.23 261 151.65C261.13 151.44 261.26 151.22 261.39 151C261.45 150.69 261.51 150.38 261.57 150.07C262.21 150.03 262.86 150 263.5 149.96C263.92 149.82 264.33 149.67 264.75 149.53C266.21 151.04 267.01 153.05 269.15 151.25C268.77 151.14 268.38 151.03 268 150.93C267.64 150.64 267.29 150.35 266.93 150.06C267.07 149.46 267.2 148.85 267.34 148.25C267.72 148.13 268.11 148.01 268.5 147.9C268.96 148.18 269.42 148.47 269.88 148.75C269.85 149.42 269.82 150.08 269.79 150.75C270.78 151.19 271.76 151.63 272.75 152.07C276.23 151.07 275.95 146.33 272.25 146.02C271.69 146.43 271.13 146.84 270.57 147.25C270.07 147.14 269.58 147.02 269.08 146.91C269.04 146.69 269.01 146.47 268.98 146.25C268.65 146.18 268.33 146.11 268 146.05C267.25 146.62 266.5 147.2 265.75 147.78C265.5 147.84 265.25 147.91 265 147.97C264.88 147.94 264.75 147.91 264.63 147.88C264.45 147.71 264.28 147.54 264.11 147.37C263.57 146.93 263.04 146.49 262.5 146.05C262.08 146.07 261.67 146.09 261.25 146.11C261.17 146.26 261.1 146.4 261.02 146.54C260.68 146.86 260.35 147.18 260.01 147.5C259.98 147.65 259.95 147.81 259.92 147.96C259.7 148.31 259.47 148.66 259.25 149.01C258.67 148.68 258.08 148.36 257.5 148.03C257.35 148.02 257.21 148.01 257.06 148C256.71 147.65 256.36 147.3 256 146.95C256 146.8 256 146.66 256 146.51C256.15 146.34 256.31 146.16 256.47 145.98C257.64 146.34 257.57 146.25 258.13 145.25C257.25 145.18 256.38 145.1 255.5 145.03C255.32 145.17 255.14 145.32 254.96 145.46ZM282.48 145.49C282.36 145.57 282.24 145.66 282.12 145.75C282.11 146.33 282.1 146.92 282.08 147.5C282.09 147.83 282.09 148.17 282.1 148.5C282.14 149.42 282.19 150.33 282.23 151.25C282.33 151.32 282.43 151.38 282.54 151.45C282.86 151.62 283.18 151.79 283.5 151.96C284.17 151.96 284.83 151.97 285.5 151.97C285.83 151.73 286.17 151.49 286.5 151.25C286.17 151.17 285.83 151.08 285.5 151C285.18 150.98 284.85 150.96 284.53 150.94C284.36 150.8 284.18 150.67 284.01 150.54C284.14 150.03 284.27 149.53 284.4 149.02C284.77 149 285.13 148.97 285.5 148.94C285.67 148.88 285.83 148.81 286 148.75C285.83 148.5 285.67 148.26 285.5 148.01C285.18 147.99 284.85 147.96 284.53 147.93C284.36 147.8 284.18 147.67 284.01 147.54C284.14 147.04 284.27 146.53 284.41 146.02C285.14 145.93 285.87 145.84 286.6 145.75C285.58 144.73 285.01 144.75 283.5 144.99C283.16 145.16 282.82 145.32 282.48 145.49ZM277.43 146.5C276.96 146.83 276.49 147.17 276.03 147.5C276.07 148.92 276.11 150.33 276.15 151.75C278.47 151.69 278.03 150.07 278.02 148.04C278.41 147.44 278.8 146.85 279.19 146.25C278.6 146.33 278.01 146.42 277.43 146.5ZM288.94 146.51C288.75 146.63 288.57 146.75 288.38 146.87C288.17 146.9 287.96 146.92 287.75 146.95C287.5 148.38 287.25 149.82 287 151.25C287.32 151.34 287.65 151.43 287.97 151.52C288.15 151.61 288.32 151.69 288.5 151.78C288.6 151.77 288.7 151.76 288.8 151.75C288.86 150.65 288.92 149.55 288.98 148.44C289.32 148.28 289.66 148.12 290 147.96C290.19 147.97 290.37 147.99 290.56 148.01C290.69 148.15 290.82 148.3 290.95 148.45C290.97 149.3 291 150.15 291.02 151C291.18 151.28 291.34 151.56 291.5 151.84C291.68 151.81 291.86 151.78 292.05 151.75C292.12 151.5 292.2 151.25 292.28 151C292.21 150.03 292.14 149.07 292.08 148.1C292.1 147.82 292.11 147.53 292.13 147.25C291.93 147.16 291.73 147.07 291.53 146.98C291.35 146.82 291.17 146.67 290.99 146.51C290.91 146.33 290.83 146.16 290.75 145.98C290.15 146.16 289.54 146.33 288.94 146.51ZM297.04 148.5C297.04 149 297.04 149.5 297.04 150C297.11 150.29 297.18 150.57 297.25 150.86C297.49 150.92 297.72 150.98 297.96 151.04C298.22 151.36 298.49 151.69 298.75 152.02C298.9 151.34 299.06 150.67 299.21 150C299.81 149.99 300.4 149.98 301 149.97C301.31 149.81 301.63 149.66 301.94 149.5C301.98 149.17 302.02 148.83 302.06 148.5C302.05 148.33 302.04 148.17 302.03 148C301.8 147.69 301.56 147.38 301.33 147.08C300.72 146.74 300.11 146.4 299.5 146.06C298.68 146.87 297.86 147.69 297.04 148.5ZM304.44 146.51C303.97 146.84 303.51 147.17 303.04 147.5C303.03 148.5 303.03 149.5 303.03 150.5C303.13 150.84 303.23 151.19 303.33 151.53C303.47 151.67 303.61 151.8 303.75 151.93C305.46 151.27 305.08 149.76 305.03 148.06C305.27 148 305.51 147.94 305.75 147.87C306.04 147.5 306.32 147.12 306.61 146.75C305.68 146.05 305.48 145.94 304.44 146.51ZM310.25 146.02C309.15 146.43 308.05 146.84 306.94 147.25C306.94 149.48 306.94 151.71 306.94 153.94C308.56 153.5 307.81 153.07 308.99 152.28C309.46 151.97 310.14 152.13 310.65 151.9C313.42 150.63 312.06 147.26 310.25 146.02ZM315.98 146.37C315.07 146.37 314.16 146.37 313.25 146.37C312.87 148.31 312.32 150.58 313.75 151.95C314.49 150.09 315.24 148.23 315.98 146.37ZM320.97 146.47C320.63 147.23 320.29 147.99 319.95 148.75C320.14 148.84 320.32 148.93 320.51 149.02C320.63 149.18 320.75 149.33 320.86 149.49C321.09 149.91 321.31 150.33 321.54 150.75C321.19 150.84 320.85 150.94 320.5 151.03C320.32 151.1 320.14 151.18 319.96 151.25C320.14 151.48 320.32 151.72 320.5 151.95C321.25 151.96 322 151.98 322.75 151.99C323.08 151.57 323.42 151.15 323.75 150.73C324.19 150.98 324.63 151.24 325.07 151.5C325.13 151.61 325.19 151.72 325.25 151.83C325.58 151.91 325.92 151.98 326.25 152.06C326.21 151.67 326.17 151.28 326.13 150.89C326.66 149.8 327.9 150.08 329.05 149.75C329.58 147.87 328.86 146.85 327.25 145.89C325.05 146.33 324.01 147.52 324 149.75C322.8 149.42 322.23 148.84 322.24 147.58C322.46 147.39 322.67 147.19 322.89 147C322.93 146.75 322.96 146.5 323 146.25C322.67 146.18 322.33 146.11 322 146.04C321.66 146.18 321.31 146.33 320.97 146.47ZM333.25 146.21C331.31 146.02 330.62 146.48 329.82 148.25C330.58 148.92 331.34 149.58 332.1 150.25C331.47 150.75 330.85 151.25 330.23 151.75C332.4 152.33 333.65 152 334.01 149.75C332.25 148.05 333.25 148.27 333.25 146.21ZM273.75 148.3C273.84 149.68 273.94 150.39 272.5 150.75C272.12 150.25 271.74 149.75 271.36 149.25C272.04 148.01 272.34 147.86 273.75 148.3ZM278.75 179.26C274.92 179.26 271.08 179.26 267.25 179.26C266.75 182.56 267.17 185.95 266.68 189.27C264.76 202.1 260.09 215.77 247.51 221.73C242.07 224.31 237.49 222.78 232.75 224.29C235.7 226.23 240.21 226.78 243.75 226.97C263.12 227.96 273.03 214.26 277.42 197.23C278.47 193.13 280.67 182.88 278.75 179.26Z" fill="#ffffff" fill-rule="evenodd" stroke="#ffffff" stroke-width="0.25" stroke-linejoin="round"/>
<path d="M202.9 55.75C199.51 57.13 194.69 55.62 190.94 56.25C182.92 57.58 176.22 62.15 171.13 68.36C160.64 81.17 158.8 101.52 160.69 117.34C164.76 151.39 177.83 184.3 201.77 209.47C214.32 222.66 233.93 237.89 253.49 233.73C259.9 232.37 265.32 229.26 269.97 224.68C271.9 222.78 273.14 220.05 275.25 218.45C276.13 223.36 267.86 234.05 264.14 237.39C244.7 254.89 220.19 244.17 202.33 230.44C175.1 209.52 155.71 171.79 148.79 138.87C146.37 127.35 143.97 114.63 145.31 102.75C148.13 77.88 156.25 50.91 186.75 51.82C191.46 51.96 199.16 52.61 202.9 55.75Z" fill="#043bac" fill-rule="evenodd" stroke="#043bac" stroke-width="0.25" stroke-linejoin="round"/>
<path d="M202.09 62.88C209.3 62.1 217.68 66.98 223.61 70.65C236.55 78.66 247.18 90.66 255.36 103.38C258.08 107.6 261.67 112.24 263.15 117.05C262.77 116.95 262.4 116.85 262.02 116.75C261.43 115.64 260.84 114.53 260.25 113.42C259.72 114.79 258.94 115.32 259.25 116.82C257.38 117.16 253.96 117.69 252.75 118.69C251.75 117.49 250.75 116.3 249.75 115.1C249.64 115.91 249.54 116.71 249.43 117.51C246.26 113.46 244.06 108.5 240.88 104.36C228.66 88.43 217.72 79.16 198.5 72.96C197.16 71.88 193.15 72.56 193.25 71C191.69 71.57 185.94 69.85 187.75 72.5C185.15 71.98 184.05 72.59 181.75 73C182.67 74.08 181.3 74.23 180.74 75.08C178.75 76.59 176.75 78.1 174.75 79.61C173.92 79.33 173.1 79.04 172.27 78.75C175.42 73.99 179.61 67.42 185.47 65.81C188.35 65.64 191.32 63.98 194.27 63.52C197.13 63.07 199.7 65.08 202.09 62.88ZM255.5 145.03C256.38 145.1 257.25 145.18 258.13 145.25C257.57 146.25 257.64 146.34 256.47 145.98C256.15 145.67 255.82 145.35 255.5 145.03ZM283.5 144.99C285.01 144.75 285.58 144.73 286.6 145.75C285.87 145.84 285.14 145.93 284.41 146.02C284.35 145.85 284.3 145.67 284.25 145.5C284 145.33 283.75 145.16 283.5 144.99ZM254.96 145.46C254.82 145.65 254.68 145.85 254.54 146.04C254.68 145.85 254.82 145.65 254.96 145.46ZM282.48 145.49C282.73 146 282.99 146.51 283.25 147.02C282.99 146.51 282.73 146 282.48 145.49ZM254.54 146.04C254.69 146.71 254.85 147.38 255 148.05C254.67 147.45 254.33 146.85 254 146.25C254.18 146.18 254.36 146.11 254.54 146.04ZM256.47 145.98C256.31 146.16 256.15 146.34 256 146.51C256.15 146.34 256.31 146.16 256.47 145.98ZM262.5 146.05C263.04 146.49 263.57 146.93 264.11 147.37C263.57 146.93 263.04 146.49 262.5 146.05ZM268 146.05C268.33 146.11 268.65 146.18 268.98 146.25C269.01 146.47 269.04 146.69 269.08 146.91C268.72 146.62 268.36 146.33 268 146.05ZM278.02 148.04C278.03 147.78 278.03 147.51 278.03 147.25C277.83 147 277.63 146.75 277.43 146.5C278.01 146.42 278.6 146.33 279.19 146.25C278.8 146.85 278.41 147.44 278.02 148.04ZM290.99 146.51C290.41 146.75 289.83 146.99 289.25 147.23C289.15 146.99 289.04 146.75 288.94 146.51C289.54 146.33 290.15 146.16 290.75 145.98C290.83 146.16 290.91 146.33 290.99 146.51ZM299.5 146.06C300.11 146.4 300.72 146.74 301.33 147.08C301.14 147.11 300.94 147.15 300.75 147.19C300.42 147 300.08 146.81 299.75 146.62C299.67 146.43 299.58 146.25 299.5 146.06ZM305.03 148.06C305.03 147.79 305.03 147.52 305.04 147.25C304.84 147 304.64 146.75 304.44 146.51C305.48 145.94 305.68 146.05 306.61 146.75C306.32 147.12 306.04 147.5 305.75 147.87C305.51 147.94 305.27 148 305.03 148.06ZM322 146.04C322.33 146.11 322.67 146.18 323 146.25C322.96 146.5 322.93 146.75 322.89 147C322.65 146.92 322.42 146.83 322.19 146.75C322.12 146.51 322.06 146.28 322 146.04ZM326.13 150.89C325.78 151.09 325.42 151.3 325.07 151.5C324.63 151.24 324.19 150.98 323.75 150.73C323.42 151.15 323.08 151.57 322.75 151.99C322 151.98 321.25 151.96 320.5 151.95C320.5 151.64 320.5 151.34 320.5 151.03C320.85 150.94 321.19 150.84 321.54 150.75C321.31 150.33 321.09 149.91 320.86 149.49C320.75 149.33 320.63 149.18 320.51 149.02C320.66 148.17 320.81 147.32 320.97 146.47C321.39 146.84 321.82 147.21 322.24 147.58C322.23 148.84 322.8 149.42 324 149.75C324.01 147.52 325.05 146.33 327.25 145.89C328.86 146.85 329.58 147.87 329.05 149.75C327.9 150.08 326.66 149.8 326.13 150.89ZM256 146.51C256 146.66 256 146.8 256 146.95C256 146.8 256 146.66 256 146.51ZM261.02 146.54C261.1 146.71 261.17 146.88 261.25 147.05C261.17 146.88 261.1 146.71 261.02 146.54ZM290.99 146.51C291.17 146.67 291.35 146.82 291.53 146.98C291.35 146.82 291.17 146.67 290.99 146.51ZM256 146.95C256.36 147.3 256.71 147.65 257.06 148C256.65 147.91 256.24 147.83 255.83 147.75C255.89 147.48 255.95 147.21 256 146.95ZM288.38 146.87C288.3 147.16 288.22 147.46 288.14 147.75C288.08 149.01 288.03 150.26 287.97 151.52C287.65 151.43 287.32 151.34 287 151.25C287.25 149.82 287.5 148.38 287.75 146.95C287.96 146.92 288.17 146.9 288.38 146.87ZM291.53 146.98C291.73 147.07 291.93 147.16 292.13 147.25C292.11 147.53 292.1 147.82 292.08 148.1C291.9 147.73 291.71 147.35 291.53 146.98ZM299.75 146.85C300.12 147.15 300.49 147.45 300.86 147.75C300.49 148.24 300.12 148.74 299.75 149.23C298.81 148.17 298.79 148.08 299.75 146.85ZM301.33 147.08C301.56 147.38 301.8 147.69 302.03 148C301.8 147.69 301.56 147.38 301.33 147.08ZM260.01 147.5C259.98 147.65 259.95 147.81 259.92 147.96C259.95 147.81 259.98 147.65 260.01 147.5ZM262.77 146.88C262.77 147.63 262.77 148.38 262.77 149.13C262.17 149 261.56 148.88 260.96 148.75C261.56 148.13 262.17 147.51 262.77 146.88ZM268.5 147.9C268.11 148.01 267.72 148.13 267.34 148.25C267.2 148.85 267.07 149.46 266.93 150.06C266.76 149.96 266.6 149.85 266.43 149.75C266.69 148.2 266.82 147.89 268.25 147.28C268.33 147.48 268.42 147.69 268.5 147.9ZM276.03 147.5C276.14 147.58 276.24 147.67 276.35 147.75C276.48 148.86 276.62 149.98 276.75 151.09C277.01 150.14 277.27 149.2 277.52 148.25C277.69 148.18 277.86 148.11 278.02 148.04C278.03 150.07 278.47 151.69 276.15 151.75C276.11 150.33 276.07 148.92 276.03 147.5ZM282.08 147.5C282.29 147.58 282.5 147.67 282.71 147.75C282.51 148 282.3 148.25 282.1 148.5C282.09 148.17 282.09 147.83 282.08 147.5ZM284.01 147.54C283.86 147.61 283.71 147.68 283.55 147.75C283.71 147.68 283.86 147.61 284.01 147.54ZM290 147.96C289.66 148.12 289.32 148.28 288.98 148.44C289.24 148.07 289.49 147.69 289.75 147.32C289.83 147.53 289.92 147.75 290 147.96ZM290.56 148.01C290.62 147.86 290.69 147.72 290.75 147.58C290.69 147.72 290.62 147.86 290.56 148.01ZM303.04 147.5C303.16 147.58 303.28 147.67 303.4 147.75C303.4 148.58 303.41 149.42 303.41 150.25C303.28 150.33 303.16 150.42 303.03 150.5C303.03 149.5 303.03 148.5 303.04 147.5ZM257.06 148C257.21 148.01 257.35 148.02 257.5 148.03C257.35 148.02 257.21 148.01 257.06 148ZM264.63 147.88C264.75 147.91 264.88 147.94 265 147.97C264.92 148.32 264.83 148.66 264.75 149C264.71 148.63 264.67 148.25 264.63 147.88ZM284.53 147.93C284.85 147.96 285.18 147.99 285.5 148.01C285.5 148.32 285.5 148.63 285.5 148.94C285.13 148.97 284.77 149 284.4 149.02C284.44 148.66 284.49 148.3 284.53 147.93ZM305.03 148.06C305.08 149.76 305.46 151.27 303.75 151.93C303.61 151.8 303.47 151.67 303.33 151.53C303.66 151.27 303.99 151.01 304.33 150.75C304.41 149.92 304.5 149.08 304.59 148.25C304.74 148.19 304.89 148.13 305.03 148.06ZM326.75 148C326.67 148.08 326.58 148.17 326.5 148.25C326.58 148.33 326.67 148.42 326.75 148.5C326.83 148.42 326.92 148.33 327 148.25C326.92 148.17 326.83 148.08 326.75 148ZM288.98 148.44C288.92 149.55 288.86 150.65 288.8 151.75C288.7 151.76 288.6 151.77 288.5 151.78C288.5 150.77 288.5 149.76 288.51 148.75C288.66 148.65 288.82 148.55 288.98 148.44ZM290.95 148.45C291.18 148.55 291.4 148.65 291.63 148.75C291.61 149.25 291.59 149.75 291.57 150.25C291.8 150.5 292.04 150.75 292.28 151C292.2 151.25 292.12 151.5 292.05 151.75C291.86 151.78 291.68 151.81 291.5 151.84C291.34 151.56 291.18 151.28 291.02 151C291 150.15 290.97 149.3 290.95 148.45ZM297.04 148.5C297.17 148.92 297.3 149.33 297.42 149.75C297.3 149.83 297.17 149.92 297.04 150C297.04 149.5 297.04 149 297.04 148.5ZM302.06 148.5C302.02 148.83 301.98 149.17 301.94 149.5C301.8 149.42 301.66 149.33 301.53 149.25C301.7 149 301.88 148.75 302.06 148.5ZM256.87 149.22C257.03 149.23 257.19 149.24 257.36 149.25C257.22 149.69 257.09 150.12 256.95 150.56C256.92 150.11 256.9 149.67 256.87 149.22ZM282.75 148.83C282.92 148.91 283.08 148.98 283.25 149.06C283.33 149.12 283.42 149.19 283.5 149.25C283.5 149.42 283.5 149.58 283.5 149.75C283.42 149.86 283.33 149.97 283.25 150.07C283.08 150.05 282.92 150.02 282.75 149.99C282.67 149.91 282.58 149.83 282.5 149.75C282.5 149.58 282.5 149.42 282.5 149.25C282.58 149.11 282.67 148.97 282.75 148.83ZM263.5 149.96C262.86 150 262.21 150.03 261.57 150.07C261.63 149.88 261.69 149.69 261.75 149.5C262.33 149.66 262.92 149.81 263.5 149.96ZM301 149.97C300.4 149.98 299.81 149.99 299.21 150C299.22 149.89 299.24 149.78 299.25 149.66C299.75 149.59 300.25 149.52 300.75 149.45C300.83 149.62 300.92 149.8 301 149.97ZM259.01 150.45C258.92 150.24 258.84 150.03 258.75 149.82C258.84 150.03 258.92 150.24 259.01 150.45ZM266.93 150.06C267.29 150.35 267.64 150.64 268 150.93C267.75 150.95 267.5 150.98 267.25 151C267.14 150.69 267.04 150.37 266.93 150.06ZM255 150.54C255.2 150.67 255.4 150.81 255.6 150.94C255.27 151.13 254.93 151.31 254.6 151.5C254.73 151.18 254.87 150.86 255 150.54ZM284.01 150.54C283.88 150.61 283.75 150.68 283.62 150.75C283.75 150.68 283.88 150.61 284.01 150.54ZM297.96 151.04C298.06 150.83 298.15 150.62 298.25 150.42C298.15 150.62 298.06 150.83 297.96 151.04ZM258.48 150.96C257.78 152.07 257.28 152.08 256 151.99C256.08 151.82 256.17 151.66 256.25 151.5C256.99 151.32 257.74 151.14 258.48 150.96ZM261.39 151C261.26 151.22 261.13 151.44 261 151.65C261.13 151.44 261.26 151.22 261.39 151ZM282.54 151.45C282.61 151.21 282.68 150.98 282.75 150.75C282.68 150.98 282.61 151.21 282.54 151.45ZM284.53 150.94C284.85 150.96 285.18 150.98 285.5 151C285.5 151.32 285.5 151.64 285.5 151.97C284.83 151.97 284.17 151.96 283.5 151.96C283.84 151.62 284.19 151.28 284.53 150.94Z" fill="#424045" fill-rule="evenodd" stroke="#424045" stroke-width="0.25" stroke-linejoin="round"/>
<path d="M130.75 91.21C131.13 96.14 129.49 101.53 129.26 106.53C128.77 116.69 130.15 127.68 132.22 137.62C138.86 169.63 153.43 200.15 174.4 225.36C179.74 231.78 185.99 237.54 192.47 242.77C195.06 244.87 198.31 246.37 200.59 248.75C197.84 249.43 195.09 247.41 192.61 246.18C184.53 242.2 177 236.47 170.65 230.08C146.92 206.24 126.74 167.08 124.97 133.25C124.39 122.27 124.35 111.81 126.77 101.09C127.39 98.29 128.01 92.47 130.75 91.21Z" fill="#0880d3" fill-rule="evenodd" stroke="#0880d3" stroke-width="0.25" stroke-linejoin="round"/>
<path d="M202.09 62.88C199.7 65.08 197.13 63.07 194.27 63.52C191.32 63.98 188.35 65.64 185.47 65.81C189.22 62.75 197.54 61.66 202.09 62.88ZM198.5 72.96C189.75 72.24 188.6 73.36 180.74 75.08C181.3 74.23 182.67 74.08 181.75 73C184.05 72.59 185.15 71.98 187.75 72.5C185.94 69.85 191.69 71.57 193.25 71C193.15 72.56 197.16 71.88 198.5 72.96ZM263.15 117.05C263.77 118.45 264.39 119.85 265.01 121.25C260.59 121.28 256.17 121.31 251.75 121.34C250.98 120.06 250.2 118.79 249.43 117.51C249.54 116.71 249.64 115.91 249.75 115.1C250.75 116.3 251.75 117.49 252.75 118.69C253.96 117.69 257.38 117.16 259.25 116.82C258.94 115.32 259.72 114.79 260.25 113.42C260.84 114.53 261.43 115.64 262.02 116.75C262.4 116.85 262.77 116.95 263.15 117.05ZM255.5 145.03C255.82 145.35 256.15 145.67 256.47 145.98C256.31 146.16 256.15 146.34 256 146.51C256 146.66 256 146.8 256 146.95C255.95 147.21 255.89 147.48 255.83 147.75C256.24 147.83 256.65 147.91 257.06 148C257.21 148.01 257.35 148.02 257.5 148.03C258.08 148.36 258.67 148.68 259.25 149.01C259.47 148.66 259.7 148.31 259.92 147.96C259.95 147.81 259.98 147.65 260.01 147.5C260.35 147.18 260.68 146.86 261.02 146.54C261.1 146.71 261.17 146.88 261.25 147.05C261.17 146.88 261.1 146.71 261.02 146.54C261.1 146.4 261.17 146.26 261.25 146.11C261.67 146.09 262.08 146.07 262.5 146.05C263.04 146.49 263.57 146.93 264.11 147.37C264.28 147.54 264.45 147.71 264.63 147.88C264.67 148.25 264.71 148.63 264.75 149C264.83 148.66 264.92 148.32 265 147.97C265.25 147.91 265.5 147.84 265.75 147.78C266.5 147.2 267.25 146.62 268 146.05C268.36 146.33 268.72 146.62 269.08 146.91C269.58 147.02 270.07 147.14 270.57 147.25C271.13 146.84 271.69 146.43 272.25 146.02C275.95 146.33 276.23 151.07 272.75 152.07C271.76 151.63 270.78 151.19 269.79 150.75C269.82 150.08 269.85 149.42 269.88 148.75C269.42 148.47 268.96 148.18 268.5 147.9C268.42 147.69 268.33 147.48 268.25 147.28C266.82 147.89 266.69 148.2 266.43 149.75C266.6 149.85 266.76 149.96 266.93 150.06C267.04 150.37 267.14 150.69 267.25 151C267.5 150.98 267.75 150.95 268 150.93C268.38 151.03 268.77 151.14 269.15 151.25C267.01 153.05 266.21 151.04 264.75 149.53C264.33 149.67 263.92 149.82 263.5 149.96C262.92 149.81 262.33 149.66 261.75 149.5C261.69 149.69 261.63 149.88 261.57 150.07C261.51 150.38 261.45 150.69 261.39 151C261.26 151.22 261.13 151.44 261 151.65C260.58 151.23 260.17 150.81 259.75 150.38C259.5 150.41 259.25 150.43 259.01 150.45C258.92 150.24 258.84 150.03 258.75 149.82C258.84 150.03 258.92 150.24 259.01 150.45C258.83 150.62 258.65 150.79 258.48 150.96C257.74 151.14 256.99 151.32 256.25 151.5C256.17 151.66 256.08 151.82 256 151.99C255.53 151.82 255.06 151.66 254.6 151.5C254.93 151.31 255.27 151.13 255.6 150.94C256.05 150.81 256.5 150.69 256.95 150.56C257.09 150.12 257.22 149.69 257.36 149.25C257.19 149.24 257.03 149.23 256.87 149.22C256.25 148.83 255.62 148.44 255 148.05C254.85 147.38 254.69 146.71 254.54 146.04C254.68 145.85 254.82 145.65 254.96 145.46C255.14 145.32 255.32 145.17 255.5 145.03ZM283.5 144.99C283.75 145.16 284 145.33 284.25 145.5C284.3 145.67 284.35 145.85 284.41 146.02C284.27 146.53 284.14 147.04 284.01 147.54C283.86 147.61 283.71 147.68 283.55 147.75C283.71 147.68 283.86 147.61 284.01 147.54C284.18 147.67 284.36 147.8 284.53 147.93C284.49 148.3 284.44 148.66 284.4 149.02C284.27 149.53 284.14 150.03 284.01 150.54C283.88 150.61 283.75 150.68 283.62 150.75C283.75 150.68 283.88 150.61 284.01 150.54C284.18 150.67 284.36 150.8 284.53 150.94C284.19 151.28 283.84 151.62 283.5 151.96C283.18 151.79 282.86 151.62 282.54 151.45C282.61 151.21 282.68 150.98 282.75 150.75C282.68 150.98 282.61 151.21 282.54 151.45C282.43 151.38 282.33 151.32 282.23 151.25C282.19 150.33 282.14 149.42 282.1 148.5C282.3 148.25 282.51 148 282.71 147.75C282.5 147.67 282.29 147.58 282.08 147.5C282.1 146.92 282.11 146.33 282.12 145.75C282.24 145.66 282.36 145.57 282.48 145.49C282.73 146 282.99 146.51 283.25 147.02C282.99 146.51 282.73 146 282.48 145.49C282.82 145.32 283.16 145.16 283.5 144.99ZM299.5 146.06C299.58 146.25 299.67 146.43 299.75 146.62C300.08 146.81 300.42 147 300.75 147.19C300.94 147.15 301.14 147.11 301.33 147.08C301.56 147.38 301.8 147.69 302.03 148C302.04 148.17 302.05 148.33 302.06 148.5C301.88 148.75 301.7 149 301.53 149.25C301.66 149.33 301.8 149.42 301.94 149.5C301.63 149.66 301.31 149.81 301 149.97C300.92 149.8 300.83 149.62 300.75 149.45C300.25 149.52 299.75 149.59 299.25 149.66C299.24 149.78 299.22 149.89 299.21 150C299.06 150.67 298.9 151.34 298.75 152.02C298.49 151.69 298.22 151.36 297.96 151.04C298.06 150.83 298.15 150.62 298.25 150.42C298.15 150.62 298.06 150.83 297.96 151.04C297.72 150.98 297.49 150.92 297.25 150.86C297.18 150.57 297.11 150.29 297.04 150C297.17 149.92 297.3 149.83 297.42 149.75C297.3 149.33 297.17 148.92 297.04 148.5C297.86 147.69 298.68 146.87 299.5 146.06ZM310.25 146.02C312.06 147.26 313.42 150.63 310.65 151.9C310.14 152.13 309.46 151.97 308.99 152.28C307.81 153.07 308.56 153.5 306.94 153.94C306.94 151.71 306.94 149.48 306.94 147.25C308.05 146.84 309.15 146.43 310.25 146.02ZM315.98 146.37C315.24 148.23 314.49 150.09 313.75 151.95C312.32 150.58 312.87 148.31 313.25 146.37C314.16 146.37 315.07 146.37 315.98 146.37ZM322 146.04C322.06 146.28 322.12 146.51 322.19 146.75C322.42 146.83 322.65 146.92 322.89 147C322.67 147.19 322.46 147.39 322.24 147.58C321.82 147.21 321.39 146.84 320.97 146.47C321.31 146.33 321.66 146.18 322 146.04ZM333.25 146.21C333.25 148.27 332.25 148.05 334.01 149.75C333.65 152 332.4 152.33 330.23 151.75C330.85 151.25 331.47 150.75 332.1 150.25C331.34 149.58 330.58 148.92 329.82 148.25C330.62 146.48 331.31 146.02 333.25 146.21ZM277.43 146.5C277.63 146.75 277.83 147 278.03 147.25C278.03 147.51 278.03 147.78 278.02 148.04C277.86 148.11 277.69 148.18 277.52 148.25C277.27 149.2 277.01 150.14 276.75 151.09C276.62 149.98 276.48 148.86 276.35 147.75C276.24 147.67 276.14 147.58 276.03 147.5C276.49 147.17 276.96 146.83 277.43 146.5ZM288.94 146.51C289.04 146.75 289.15 146.99 289.25 147.23C289.83 146.99 290.41 146.75 290.99 146.51C291.17 146.67 291.35 146.82 291.53 146.98C291.71 147.35 291.9 147.73 292.08 148.1C292.14 149.07 292.21 150.03 292.28 151C292.04 150.75 291.8 150.5 291.57 150.25C291.59 149.75 291.61 149.25 291.63 148.75C291.4 148.65 291.18 148.55 290.95 148.45C290.82 148.3 290.69 148.15 290.56 148.01C290.62 147.86 290.69 147.72 290.75 147.58C290.69 147.72 290.62 147.86 290.56 148.01C290.37 147.99 290.19 147.97 290 147.96C289.92 147.75 289.83 147.53 289.75 147.32C289.49 147.69 289.24 148.07 288.98 148.44C288.82 148.55 288.66 148.65 288.51 148.75C288.5 149.76 288.5 150.77 288.5 151.78C288.32 151.69 288.15 151.61 287.97 151.52C288.03 150.26 288.08 149.01 288.14 147.75C288.22 147.46 288.3 147.16 288.38 146.87C288.57 146.75 288.75 146.63 288.94 146.51ZM304.44 146.51C304.64 146.75 304.84 147 305.04 147.25C305.03 147.52 305.03 147.79 305.03 148.06C304.89 148.13 304.74 148.19 304.59 148.25C304.5 149.08 304.41 149.92 304.33 150.75C303.99 151.01 303.66 151.27 303.33 151.53C303.23 151.19 303.13 150.84 303.03 150.5C303.16 150.42 303.28 150.33 303.41 150.25C303.41 149.42 303.4 148.58 303.4 147.75C303.28 147.67 303.16 147.58 303.04 147.5C303.51 147.17 303.97 146.84 304.44 146.51ZM320.97 146.47C320.81 147.32 320.66 148.17 320.51 149.02C320.32 148.93 320.14 148.84 319.95 148.75C320.29 147.99 320.63 147.23 320.97 146.47ZM299.75 146.85C298.79 148.08 298.81 148.17 299.75 149.23C300.12 148.74 300.49 148.24 300.86 147.75C300.49 147.45 300.12 147.15 299.75 146.85ZM262.77 146.88C262.17 147.51 261.56 148.13 260.96 148.75C261.56 148.88 262.17 149 262.77 149.13C262.77 148.38 262.77 147.63 262.77 146.88ZM273.75 148.3C272.34 147.86 272.04 148.01 271.36 149.25C271.74 149.75 272.12 150.25 272.5 150.75C273.94 150.39 273.84 149.68 273.75 148.3ZM285.5 148.01C285.67 148.26 285.83 148.5 286 148.75C285.83 148.81 285.67 148.88 285.5 148.94C285.5 148.63 285.5 148.32 285.5 148.01ZM326.75 148C326.83 148.08 326.92 148.17 327 148.25C326.92 148.33 326.83 148.42 326.75 148.5C326.67 148.42 326.58 148.33 326.5 148.25C326.58 148.17 326.67 148.08 326.75 148ZM282.75 148.83C282.67 148.97 282.58 149.11 282.5 149.25C282.5 149.42 282.5 149.58 282.5 149.75C282.58 149.83 282.67 149.91 282.75 149.99C282.92 150.02 283.08 150.05 283.25 150.07C283.33 149.97 283.42 149.86 283.5 149.75C283.5 149.58 283.5 149.42 283.5 149.25C283.42 149.19 283.33 149.12 283.25 149.06C283.08 148.98 282.92 148.91 282.75 148.83ZM320.51 149.02C320.63 149.18 320.75 149.33 320.86 149.49C320.75 149.33 320.63 149.18 320.51 149.02ZM255 150.54C255.2 150.67 255.4 150.81 255.6 150.94C255.4 150.81 255.2 150.67 255 150.54ZM285.5 151C285.83 151.08 286.17 151.17 286.5 151.25C286.17 151.49 285.83 151.73 285.5 151.97C285.5 151.64 285.5 151.32 285.5 151ZM291.02 151C291.18 151.28 291.34 151.56 291.5 151.84C291.34 151.56 291.18 151.28 291.02 151ZM320.5 151.03C320.5 151.34 320.5 151.64 320.5 151.95C320.32 151.72 320.14 151.48 319.96 151.25C320.14 151.18 320.32 151.1 320.5 151.03ZM326.13 150.89C326.17 151.28 326.21 151.67 326.25 152.06C325.92 151.98 325.58 151.91 325.25 151.83C325.19 151.72 325.13 151.61 325.07 151.5C325.42 151.3 325.78 151.09 326.13 150.89ZM278.75 179.26C280.67 182.88 278.47 193.13 277.42 197.23C273.03 214.26 263.12 227.96 243.75 226.97C240.21 226.78 235.7 226.23 232.75 224.29C237.49 222.78 242.07 224.31 247.51 221.73C260.09 215.77 264.76 202.1 266.68 189.27C267.17 185.95 266.75 182.56 267.25 179.26C271.08 179.26 274.92 179.26 278.75 179.26Z" fill="#252224" fill-rule="evenodd" stroke="#252224" stroke-width="0.25" stroke-linejoin="round"/>
</svg>